<svg xmlns="http://www.w3.org/2000/svg" viewBox="0 0 100 100" width="100" height="100">
  <!-- Simplified spiral with uniform dash pattern -->
  <path d="M50,50 
           A5,5 0 0,1 55,50
           A10,10 0 0,1 50,60
           A15,15 0 0,1 40,50
           A20,20 0 0,1 50,30
           A25,25 0 0,1 70,50
           A30,30 0 0,1 50,80
           A35,35 0 0,1 20,50
           A40,40 0 0,1 50,20"
        stroke="black" stroke-width="2" fill="none" stroke-linecap="round" stroke-dasharray="5,5"/>

  <!-- Solid eye at center for better visibility -->
  <circle cx="50" cy="50" r="5" stroke="black" stroke-width="2" fill="white"/>
</svg>
